<svg width="24" height="24" viewBox="0 0 34 34" fill="none" xmlns="http://www.w3.org/2000/svg">
<path d="M16.9931 23.6254V20.0313M21.9514 7.54484V7.02634C21.9514 5.29801 20.5489 3.89551 18.8206 3.89551H15.1656C13.4373 3.89551 12.0348 5.29801 12.0348 7.02634V7.54484M3.93043 21.9342L4.19818 25.4886C4.37951 27.8842 6.3756 29.7358 8.77685 29.7358H25.2088C27.61 29.7358 29.6061 27.8842 29.7874 25.4886L30.0552 21.9342M25.7691 7.55107C28.1632 7.55107 30.0899 9.49191 30.0899 11.8861V16.7594C26.6049 18.7994 22.0007 20.0319 16.9857 20.0319C11.9707 20.0319 7.38072 18.7994 3.89572 16.7594V11.8719C3.89572 9.47774 5.83655 7.55107 8.23072 7.55107H25.7691Z" stroke="#1E1E1E" stroke-width="2.5" stroke-linecap="round" stroke-linejoin="round"/>
</svg>
