<svg width="20" height="20" viewBox="0 0 24 25" fill="none" xmlns="http://www.w3.org/2000/svg">
<path fill-rule="evenodd" clip-rule="evenodd" d="M4.60368 6.11531C4.56468 6.15904 4.52385 6.19877 4.50205 6.21998C4.49948 6.22248 4.49718 6.22472 4.49517 6.22668L4.49215 6.22964C4.45422 6.26671 4.418 6.30213 4.37817 6.34408C4.29835 6.42816 4.20922 6.53348 4.12658 6.66747C3.96732 6.92569 3.8076 7.32886 3.84568 7.95101C3.92451 9.23864 4.86013 11.561 8.69454 15.3945C12.529 19.228 14.8509 20.1621 16.138 20.24C16.7598 20.2775 17.1628 20.1175 17.421 19.9579C17.555 19.8751 17.6604 19.7858 17.7446 19.7057C17.7864 19.6661 17.8216 19.6301 17.8586 19.5922L17.8623 19.5884C17.8643 19.5864 17.8666 19.5841 17.869 19.5816C17.8903 19.5597 17.9301 19.5188 17.9741 19.4796C18.6391 18.8127 19.0089 18.3369 19.1917 17.9792C19.3606 17.6488 19.3477 17.4677 19.3002 17.3241C19.2351 17.1274 19.0637 16.8819 18.6917 16.5005C18.5122 16.3164 18.3053 16.1193 18.0652 15.8911L18.0514 15.8779C17.818 15.656 17.5582 15.4089 17.2834 15.1343C16.838 14.6891 16.5445 14.6446 16.3171 14.6616C16.1722 14.6724 16.0088 14.7137 15.7991 14.7875C15.6948 14.8242 15.5873 14.8659 15.4673 14.913C15.4554 14.9176 15.4433 14.9223 15.4312 14.9271C15.324 14.9692 15.2069 15.0152 15.0874 15.0589C14.5469 15.2572 13.8604 15.4508 13.0329 15.2862C12.2122 15.1229 11.3581 14.6299 10.4086 13.6807C9.45907 12.7314 8.96582 11.8774 8.80208 11.0568C8.63697 10.2293 8.82988 9.54276 9.0276 9.00198C9.07134 8.88237 9.11717 8.76519 9.15911 8.65798C9.16386 8.64581 9.16858 8.63378 9.17322 8.62188C9.22017 8.50177 9.26175 8.39421 9.29833 8.28996C9.37198 8.08012 9.41311 7.91656 9.42383 7.77163C9.44068 7.54387 9.39578 7.25027 8.95044 6.80494C8.67232 6.52682 8.42257 6.2639 8.19848 6.02801L8.19345 6.02271C7.96517 5.7824 7.76817 5.57524 7.58429 5.39543C7.20306 5.02267 6.958 4.85093 6.7619 4.78573C6.61908 4.73825 6.43852 4.72498 6.10786 4.89413C5.74958 5.07742 5.27266 5.44822 4.60368 6.11531ZM9.23814 5.03164C9.46452 5.26996 9.70367 5.52168 9.96863 5.7867C10.6545 6.47253 10.9131 7.1597 10.8599 7.87789C10.8356 8.20594 10.7484 8.50664 10.657 8.7668C10.6112 8.89757 10.5611 9.02645 10.5145 9.14601C10.5098 9.15799 10.5051 9.16987 10.5005 9.18166C10.4578 9.29093 10.4179 9.39288 10.38 9.49647C10.2151 9.94757 10.1262 10.3336 10.2142 10.775C10.3037 11.2233 10.5987 11.8345 11.4267 12.6623C12.2547 13.4901 12.8658 13.7847 13.3138 13.8738C13.755 13.9616 14.1407 13.8724 14.5915 13.7071C14.6951 13.669 14.797 13.6291 14.9063 13.5862C14.918 13.5816 14.9299 13.577 14.9418 13.5723C15.0613 13.5254 15.1902 13.4753 15.3208 13.4292C15.5809 13.3377 15.8816 13.2502 16.2096 13.2256C16.9278 13.1719 17.6151 13.43 18.3013 14.1156C18.5633 14.3774 18.8121 14.6142 19.0478 14.8383L19.0576 14.8475C19.2931 15.0716 19.5206 15.2881 19.7225 15.495C20.1131 15.8955 20.4916 16.3407 20.6673 16.8715C20.8604 17.4551 20.7792 18.0376 20.4739 18.6346C20.1844 19.2009 19.6795 19.8106 18.974 20.5161C18.9599 20.5303 18.9452 20.5438 18.93 20.5567C18.9276 20.5591 18.9167 20.5698 18.8919 20.5952L18.8854 20.6018C18.8497 20.6384 18.798 20.6913 18.7366 20.7496C18.6037 20.8759 18.4199 21.0334 18.178 21.1829C17.6844 21.4879 16.9891 21.734 16.051 21.6773C14.2183 21.5665 11.5742 20.3097 7.67643 16.4128C3.77862 12.516 2.52058 9.87186 2.40838 8.039C2.35095 7.10092 2.5964 6.40533 2.90096 5.91153C3.05022 5.66952 3.20768 5.48551 3.33386 5.35261C3.39261 5.29072 3.44568 5.23886 3.48237 5.20301C3.48447 5.20095 3.48652 5.19895 3.48851 5.19701C3.51418 5.17191 3.52494 5.16091 3.52726 5.15868C3.54004 5.14362 3.55342 5.12908 3.5674 5.11511C4.27463 4.40787 4.88533 3.90205 5.45204 3.61214C6.04958 3.30647 6.63245 3.22519 7.21621 3.41928C7.7467 3.59566 8.1914 3.97508 8.59102 4.36583C8.79658 4.56681 9.0117 4.79328 9.23424 5.02755L9.23814 5.03164Z" fill="#C8C8C8"/>
<path fill-rule="evenodd" clip-rule="evenodd" d="M13.4196 7.05488C13.4953 6.66452 13.8733 6.40948 14.2636 6.48525C16.1304 6.84757 17.5897 8.30689 17.9521 10.1737C18.0279 10.5641 17.7728 10.942 17.3824 11.0177C16.9921 11.0935 16.6143 10.8385 16.5384 10.4481C16.288 9.15779 15.2796 8.14929 13.9892 7.89887C13.5989 7.82311 13.3438 7.44524 13.4196 7.05488Z" fill="#C8C8C8"/>
<path fill-rule="evenodd" clip-rule="evenodd" d="M13.4107 3.95495C13.4546 3.55973 13.8105 3.27491 14.2058 3.31879C17.8384 3.72208 20.7077 6.58825 21.115 10.2208C21.1593 10.616 20.8749 10.9723 20.4798 11.0166C20.0846 11.0609 19.7283 10.7765 19.684 10.3813C19.3516 7.41747 17.0106 5.07902 14.0469 4.75C13.6517 4.70612 13.3668 4.35017 13.4107 3.95495Z" fill="#C8C8C8"/>
</svg>
