<svg width="24" height="24" viewBox="0 0 36 36" fill="none" xmlns="http://www.w3.org/2000/svg">
<path d="M19.5278 21.0263H16.4953M24.41 14.9068C25.4537 14.0619 27.8948 12.0846 29.8646 10.4883C30.3465 10.0967 31.0573 10.5094 30.9489 11.1208C30.5739 13.2547 29.6689 19.9201 29.1358 23.9093C28.8978 25.6923 27.3783 27.0131 25.5801 27.0131H10.4243C8.6262 27.0131 7.1067 25.6923 6.86724 23.9109C6.33414 19.9215 5.42755 13.2577 5.05107 11.1223C4.94263 10.5109 5.65345 10.0983 6.13536 10.4883C8.10513 12.0861 10.5448 14.0619 11.5899 14.9068C11.8685 15.1326 12.2646 15.101 12.5025 14.8315C13.5823 13.6192 16.3698 10.4853 17.5068 9.20673C17.7719 8.90855 18.2281 8.90855 18.4932 9.20673C19.6286 10.4853 22.4162 13.6192 23.4959 14.8315C23.7354 15.101 24.1315 15.1326 24.41 14.9068Z" stroke="#1E1E1E" stroke-width="2.5" stroke-linecap="round" stroke-linejoin="round"/>
</svg>
