<svg width="24" height="24" viewBox="0 0 36 36" fill="none" xmlns="http://www.w3.org/2000/svg">
<path d="M17.9946 21.956V26.0018M12.0225 30.1607L13.3535 26.001H22.858L24.1891 30.1607M26.6146 30.1605H9.59657M9.08114 8.47852H4.53472C4.53472 8.47852 3.89543 14.1765 8.10325 16.9467M26.9179 8.47852H31.4644C31.4644 8.47852 32.1036 14.1765 27.8958 16.9467M27.0745 5.83594H8.92382C8.92382 5.83594 8.93404 21.9549 18.0036 21.9549C27.0745 21.9549 27.0745 5.83594 27.0745 5.83594ZM18.3768 10.4885L19.0014 11.7349C19.0627 11.859 19.1809 11.9436 19.3167 11.9626L20.715 12.164C20.9412 12.1932 21.1002 12.4019 21.0696 12.6281C21.0579 12.7201 21.0141 12.8062 20.947 12.8719L19.9369 13.841C19.8378 13.9359 19.7925 14.0745 19.8159 14.2088L20.0553 15.5793C20.0917 15.8085 19.9356 16.023 19.7079 16.0595C19.6174 16.074 19.5255 16.0595 19.4451 16.0172L18.1972 15.3692C18.0732 15.3063 17.9272 15.3063 17.8047 15.3692L16.5567 16.0172C16.3524 16.1252 16.0984 16.0478 15.9904 15.842C15.9466 15.7617 15.9321 15.6698 15.9466 15.5793L16.186 14.2088C16.2094 14.0745 16.1641 13.9359 16.0648 13.8425L15.0534 12.8719C14.8885 12.7128 14.8841 12.4515 15.0432 12.2866C15.1074 12.2195 15.1935 12.1757 15.2869 12.164L16.6837 11.9626C16.8195 11.9436 16.9377 11.859 17.0004 11.7364L17.6251 10.4885C17.7331 10.2812 17.9886 10.1995 18.1957 10.3075C18.2731 10.3469 18.3358 10.4111 18.3768 10.4885Z" stroke="#1E1E1E" stroke-width="2.5" stroke-linecap="round" stroke-linejoin="round"/>
</svg>
