<svg width="24" height="24" viewBox="0 0 36 36" fill="none" xmlns="http://www.w3.org/2000/svg">
<path d="M26.6336 29.2793H20.1905M15.7992 29.2793H9.36914M18.003 27.0483V23.1328M11.0715 11.4306C7.86089 11.4598 5.26611 13.6167 5.26611 17.2899C5.26611 19.6659 6.68025 21.7104 8.71316 22.6284C9.56835 22.9756 10.4206 23.1085 11.0671 23.1085H24.9239C25.5719 23.1085 26.4257 22.9815 27.2925 22.6356C29.324 21.7162 30.7337 19.6659 30.7337 17.2899C30.7337 13.6167 28.1405 11.4598 24.9297 11.4306C24.9297 9.12039 23.1173 4.5 18.0006 4.5C12.8841 4.5 11.0715 9.12039 11.0715 11.4306ZM20.2232 29.2797C20.2232 30.5072 19.2278 31.5024 18.0005 31.5024C16.7732 31.5024 15.7793 30.5072 15.7793 29.2797C15.7793 28.0524 16.7732 27.0587 18.0005 27.0587C19.2278 27.0587 20.2232 28.0524 20.2232 29.2797Z" stroke="#1E1E1E" stroke-width="2.5" stroke-linecap="round" stroke-linejoin="round"/>
</svg>
