<svg width="24" height="24" viewBox="0 0 36 36" fill="none" xmlns="http://www.w3.org/2000/svg">
<path d="M27.8455 25.6356C29.9997 24.6623 31.5 22.4934 31.5 19.9745C31.5 16.0806 28.7547 13.7659 25.3455 13.7629C25.3455 11.314 23.4247 6.41602 18 6.41602C12.5752 6.41602 10.6545 11.314 10.6545 13.7629C7.24962 13.7936 4.5 16.0806 4.5 19.9745C4.5 22.4934 5.99886 24.6623 8.15448 25.6356M13.8018 22.3125L15.2015 23.1197M20.7969 26.351L22.1965 27.1595M13.8018 27.1587L15.2015 26.3502M20.7969 23.1197L22.1965 22.3125M18 19.8926V21.5067M18 27.9695V29.5851M21.2297 24.7352C21.2297 26.52 19.7845 27.9666 17.9995 27.9666C16.2162 27.9666 14.7686 26.52 14.7686 24.7352C14.7686 22.9502 16.2162 21.5039 17.9995 21.5039C19.7845 21.5039 21.2297 22.9502 21.2297 24.7352Z" stroke="#1E1E1E" stroke-width="2.5" stroke-linecap="round" stroke-linejoin="round"/>
</svg>
