<svg width="24" height="24" viewBox="0 0 36 36" fill="none" xmlns="http://www.w3.org/2000/svg">
<path d="M27.8455 24.7098C29.9997 23.7364 31.5 21.5676 31.5 19.0486C31.5 15.1548 28.7547 12.8401 25.3455 12.8371C25.3455 10.3882 23.4247 5.49023 18 5.49023C12.5752 5.49023 10.6545 10.3882 10.6545 12.8371C7.24962 12.8678 4.5 15.1548 4.5 19.0486C4.5 21.5676 5.99886 23.7364 8.15448 24.7098M18.0002 30.7048C18.0002 30.7048 22.3197 29.397 22.3197 25.7913C22.3197 22.3357 22.4763 22.0563 22.1296 21.7068C21.7825 21.3567 18.5666 20.2383 18.0002 20.2383C17.4338 20.2383 14.2172 21.3597 13.87 21.7068C13.5234 22.0534 13.6806 22.3351 13.6806 25.7913C13.6806 29.3976 18.0002 30.7048 18.0002 30.7048Z" stroke="#1E1E1E" stroke-width="2.5" stroke-linecap="round" stroke-linejoin="round"/>
</svg>
