<svg width="24" height="24" viewBox="0 0 36 36" fill="none" xmlns="http://www.w3.org/2000/svg">
<path d="M26.8315 16.3451C28.924 16.0511 30.535 14.2571 30.5395 12.0836C30.5395 9.94158 28.978 8.16558 26.9305 7.82958M29.5927 21.3755C31.6192 21.6785 33.0337 22.388 33.0337 23.8505C33.0337 24.857 32.3677 25.511 31.2907 25.922M8.82718 16.3451C6.73318 16.0511 5.12368 14.2571 5.11918 12.0836C5.11918 9.94158 6.68068 8.16558 8.72818 7.82958M6.06583 21.3755C4.03933 21.6785 2.62483 22.388 2.62483 23.8505C2.62483 24.857 3.29083 25.511 4.36783 25.922M17.83 21.9957C13.009 21.9957 8.89153 22.7262 8.89153 25.6437C8.89153 28.5597 12.9835 29.3112 17.83 29.3112C22.651 29.3112 26.767 28.5882 26.767 25.6692C26.767 22.7502 22.6765 21.9957 17.83 21.9957ZM17.83 17.8319C20.9935 17.8319 23.5585 15.2684 23.5585 12.1034C23.5585 8.93988 20.9935 6.37488 17.83 6.37488C14.6665 6.37488 12.1015 8.93988 12.1015 12.1034C12.0895 15.2564 14.635 17.8214 17.788 17.8319H17.83Z" stroke="#1E1E1E" stroke-width="2.5" stroke-linecap="round" stroke-linejoin="round"/>
</svg>
