<svg width="24" height="24" viewBox="0 0 34 34" fill="none" xmlns="http://www.w3.org/2000/svg">
<path d="M17 8.5L17.3839 7.92173C18.0361 6.93967 18.0121 5.65642 17.3234 4.69954L17 4.25" stroke="#1E1E1E" stroke-width="2.5" stroke-linecap="round" stroke-linejoin="round"/>
<path d="M17.0028 25.5L17.4714 26.4781C17.8772 27.3245 17.8372 28.3172 17.3648 29.1284L17.0028 29.75" stroke="#1E1E1E" stroke-width="2.5" stroke-linecap="round" stroke-linejoin="round"/>
<path d="M23.0098 10.9906L24.1856 10.5029C24.988 10.1701 25.5933 9.48766 25.8281 8.65127L26.0149 7.98535" stroke="#1E1E1E" stroke-width="2.5" stroke-linecap="round" stroke-linejoin="round"/>
<path d="M10.9989 23.054L10.4693 24.235C10.1592 24.9266 9.58489 25.4653 8.87482 25.7303L7.99365 26.0593" stroke="#1E1E1E" stroke-width="2.5" stroke-linecap="round" stroke-linejoin="round"/>
<path d="M25.5 16.9949L26.5677 16.5699C27.2351 16.3044 27.9785 16.3021 28.6474 16.5637L29.75 16.9949" stroke="#1E1E1E" stroke-width="2.5" stroke-linecap="round" stroke-linejoin="round"/>
<path d="M8.5 16.9979L7.10968 16.5464C6.46698 16.3378 5.77085 16.3657 5.14689 16.6251L4.25 16.9979" stroke="#1E1E1E" stroke-width="2.5" stroke-linecap="round" stroke-linejoin="round"/>
<path d="M23.0098 23.0154L24.5247 23.8293C25.261 24.2248 25.785 24.9252 25.9567 25.743L26.0149 26.0206" stroke="#1E1E1E" stroke-width="2.5" stroke-linecap="round" stroke-linejoin="round"/>
<path d="M10.9878 10.9906L10.5136 9.861C10.2028 9.12067 9.59252 8.54697 8.8344 8.2825L7.9826 7.98535" stroke="#1E1E1E" stroke-width="2.5" stroke-linecap="round" stroke-linejoin="round"/>
<path d="M17 25.5C21.6944 25.5 25.5 21.6944 25.5 17C25.5 12.3056 21.6944 8.5 17 8.5C12.3056 8.5 8.5 12.3056 8.5 17C8.5 21.6944 12.3056 25.5 17 25.5Z" stroke="#1E1E1E" stroke-width="2.5" stroke-linecap="round" stroke-linejoin="round"/>
<path d="M14.767 17.271C16.0002 17.271 16.9999 16.2713 16.9999 15.0381C16.9999 13.8049 16.0002 12.8052 14.767 12.8052C13.5338 12.8052 12.5341 13.8049 12.5341 15.0381C12.5341 16.2713 13.5338 17.271 14.767 17.271Z" stroke="#1E1E1E" stroke-width="2.5" stroke-linecap="round" stroke-linejoin="round"/>
<path d="M19.8258 20.0675C20.2817 20.0675 20.6512 19.698 20.6512 19.2421C20.6512 18.7863 20.2817 18.4167 19.8258 18.4167C19.37 18.4167 19.0004 18.7863 19.0004 19.2421C19.0004 19.698 19.37 20.0675 19.8258 20.0675Z" stroke="#1E1E1E" stroke-width="2.5" stroke-linecap="round" stroke-linejoin="round"/>
</svg>
