<svg width="24" height="24" viewBox="0 0 36 36" fill="none" xmlns="http://www.w3.org/2000/svg">
<path d="M16.0331 30.0426H12.3551C9.12665 30.0426 6.50977 27.4258 6.50977 24.1974V10.3453C6.50977 7.11689 9.12665 4.5 12.3551 4.5H22.4256C25.6541 4.5 28.2708 7.11689 28.2708 10.3453V15.1207M22.5575 25.0837L23.9375 26.4665L26.7821 23.6205M18.3668 12.9844H12.5405M14.918 19.28H12.5391M19.7561 21.6396C19.7561 20.792 20.4428 20.1039 21.2916 20.1027H21.9905C22.3955 20.1027 22.7844 19.9431 23.0727 19.6574L23.561 19.1679C24.1578 18.5656 25.1315 18.5643 25.7324 19.1612L25.7337 19.1625L25.739 19.1679L26.2286 19.656C26.5155 19.9418 26.9045 20.1027 27.3108 20.1027H28.011C28.8587 20.1027 29.5466 20.7906 29.5466 21.6396V22.3371C29.5466 22.7421 29.7075 23.1324 29.9933 23.4193L30.4814 23.909C31.0836 24.507 31.0877 25.4794 30.4895 26.0815L30.4827 26.087L29.9933 26.5765C29.7075 26.8648 29.5479 27.2524 29.5479 27.6574V28.3588C29.5466 29.2065 28.8587 29.8932 28.011 29.8919H27.3096C26.9031 29.8919 26.5142 30.0528 26.2272 30.3386L25.7376 30.828C25.1409 31.4303 24.1698 31.4343 23.5664 30.8375L23.565 30.8347L23.5596 30.8294L23.07 30.3411C22.7831 30.0555 22.3941 29.8946 21.9891 29.8946H21.2916C20.4441 29.8946 19.7561 29.2065 19.7561 28.3588V27.6561C19.7561 27.2511 19.5951 26.8635 19.3094 26.5752L18.8213 26.0856C18.219 25.4901 18.2136 24.5178 18.8105 23.9156L18.8132 23.9129L18.8199 23.9076L19.308 23.418C19.5938 23.1311 19.7547 22.7421 19.7547 22.3358L19.7561 21.6396Z" stroke="#1E1E1E" stroke-width="2.5" stroke-linecap="round" stroke-linejoin="round"/>
</svg>
