<svg width="24" height="24" viewBox="0 0 34 34" fill="none" xmlns="http://www.w3.org/2000/svg">
<path d="M8.38408 24.6357C3.89173 19.9872 3.92217 12.5772 8.49789 7.96572C11.3627 5.07844 15.3403 3.96428 19.0638 4.63119M25.6159 8.17588C30.1082 12.8244 30.0778 20.2344 25.502 24.8459C22.6373 27.7332 18.6596 28.8473 14.9361 28.1804M19.4567 12.5906H15.9079C14.8532 12.5906 13.9984 13.4454 13.9984 14.5013C13.9984 15.5559 14.8532 16.412 15.9079 16.412H18.0925C19.1472 16.412 20.0033 17.2669 20.0033 18.3228C20.0033 19.3774 19.1472 20.2335 18.0925 20.2335H14.5436M4.76001 24.3497L8.40814 25.0748L9.12929 21.4465M29.2397 8.46006L25.5917 7.73494L24.8705 11.3632M17 20.2303V21.8342M17 10.9756V12.5939" stroke="#1E1E1E" stroke-width="2.5" stroke-linecap="round" stroke-linejoin="round"/>
</svg>
