<svg width="20" height="20" viewBox="0 0 24 24" fill="none" xmlns="http://www.w3.org/2000/svg">
<path d="M11.763 15.1745C11.2776 15.1752 10.8021 15.0366 10.3931 14.7752L5.16018 11.4248C4.99926 11.3218 4.88584 11.159 4.84488 10.9724C4.80392 10.7859 4.83875 10.5906 4.94174 10.4297C5.04473 10.2687 5.20748 10.1554 5.39408 10.1144C5.58068 10.0735 5.77592 10.1083 5.93684 10.2113L11.1698 13.5627C11.3466 13.6755 11.5519 13.7354 11.7616 13.7354C11.9713 13.7354 12.1767 13.6755 12.3534 13.5627L17.5883 10.2113C17.7493 10.1083 17.9444 10.0735 18.1311 10.1144C18.2235 10.1347 18.311 10.173 18.3886 10.2271C18.4662 10.2812 18.5323 10.3501 18.5833 10.4297C18.6344 10.5094 18.6691 10.5983 18.6858 10.6914C18.7024 10.7845 18.7005 10.8801 18.6803 10.9724C18.66 11.0649 18.6217 11.1523 18.5676 11.23C18.5135 11.3076 18.4447 11.3738 18.365 11.4248L13.131 14.7752C12.7227 15.0366 12.2479 15.1752 11.763 15.1745Z" fill="#1E1E1E"/>
<path d="M17.0834 12.0822C16.8925 12.0822 16.7096 12.0065 16.5746 11.8717C16.4396 11.7368 16.3636 11.5539 16.3634 11.3632L16.3548 5.68091C16.3514 5.27085 16.1867 4.87861 15.8961 4.58927C15.6055 4.29992 15.2124 4.13682 14.8023 4.13531H8.71888C8.30725 4.13607 7.91269 4.3 7.62172 4.59116C7.33074 4.88232 7.16707 5.27696 7.16656 5.68859V11.3622C7.16656 11.5532 7.0907 11.7363 6.95568 11.8713C6.82066 12.0064 6.63752 12.0822 6.44656 12.0822C6.2556 12.0822 6.07246 12.0064 5.93744 11.8713C5.80241 11.7363 5.72656 11.5532 5.72656 11.3622V5.68859C5.72732 4.89513 6.04279 4.13436 6.60376 3.5732C7.16474 3.01205 7.92541 2.69633 8.71888 2.69531H14.8023C15.5923 2.69806 16.3494 3.01197 16.9095 3.56902C17.4696 4.12607 17.7876 4.88139 17.7948 5.67131L17.8034 11.3574C17.8035 11.452 17.7851 11.5456 17.749 11.633C17.7129 11.7204 17.6599 11.7999 17.5932 11.8668C17.5263 11.9337 17.447 11.9869 17.3598 12.0232C17.2724 12.0595 17.1789 12.0782 17.0844 12.0784L17.0834 12.0822Z" fill="#1E1E1E"/>
<path d="M12.8488 10.4645H10.6868C10.4959 10.4645 10.3128 10.3887 10.1777 10.2537C10.0427 10.1186 9.9668 9.93553 9.9668 9.74457C9.9668 9.55361 10.0427 9.37047 10.1777 9.23545C10.3128 9.10042 10.4959 9.02457 10.6868 9.02457H12.8488C13.0398 9.02457 13.2228 9.10042 13.3579 9.23545C13.4929 9.37047 13.5688 9.55361 13.5688 9.74457C13.5688 9.93553 13.4929 10.1186 13.3579 10.2537C13.2228 10.3887 13.0398 10.4645 12.8488 10.4645ZM14.0343 7.41656H9.50125C9.3103 7.41656 9.12716 7.3407 8.99213 7.20568C8.85711 7.07066 8.78125 6.88753 8.78125 6.69656C8.78125 6.50561 8.85711 6.32248 8.99213 6.18746C9.12716 6.05242 9.3103 5.97656 9.50125 5.97656H14.0343C14.2254 5.97656 14.4084 6.05242 14.5435 6.18746C14.6785 6.32248 14.7543 6.50561 14.7543 6.69656C14.7543 6.88753 14.6785 7.07066 14.5435 7.20568C14.4084 7.3407 14.2254 7.41656 14.0343 7.41656Z" fill="#1E1E1E"/>
<path d="M7.40592 21.2998C6.77125 21.3087 6.14121 21.1903 5.55318 20.9513C4.96514 20.7124 4.4311 20.3578 3.98257 19.9088C3.46656 19.3753 3.06153 18.7448 2.79096 18.0536C2.52037 17.3624 2.38959 16.6245 2.40623 15.8825V10.0783C2.34051 8.88149 2.6922 7.69894 3.40127 6.7325C4.11033 5.76607 5.13282 5.07567 6.29422 4.77914C6.48059 4.73738 6.67595 4.77138 6.83726 4.87364C6.99857 4.9759 7.11262 5.13805 7.15437 5.32442C7.19613 5.5108 7.16218 5.70612 7.05992 5.86743C6.95765 6.02875 6.79547 6.14283 6.6091 6.18458C5.76973 6.41468 5.03589 6.92824 4.53224 7.63803C4.0286 8.34783 3.78622 9.21009 3.84623 10.0783V15.8844C3.83051 16.4368 3.9242 16.9868 4.12191 17.5028C4.31962 18.0189 4.61745 18.4906 4.99824 18.8912C5.31481 19.2057 5.69122 19.4538 6.10525 19.6205C6.51928 19.7872 6.96252 19.8692 7.40879 19.8617H16.1131C16.5612 19.8694 17.0063 19.7871 17.4219 19.6198C17.8376 19.4524 18.2156 19.2033 18.5332 18.8873C18.914 18.4876 19.2117 18.0164 19.4094 17.501C19.6072 16.9857 19.7009 16.4362 19.6853 15.8844V10.0783C19.7432 9.20746 19.4975 8.34342 18.9898 7.63343C18.4822 6.92343 17.7441 6.41141 16.9012 6.18458C16.809 6.16397 16.7216 6.12538 16.6442 6.07103C16.5669 6.01666 16.501 5.94761 16.4503 5.86777C16.3996 5.78795 16.3653 5.69892 16.3489 5.60577C16.3327 5.51263 16.3349 5.41719 16.3555 5.3249C16.3761 5.23262 16.4147 5.14531 16.469 5.06793C16.5235 4.99057 16.5925 4.92465 16.6724 4.87397C16.7521 4.82329 16.8411 4.78884 16.9344 4.77257C17.0275 4.7563 17.1229 4.75853 17.2153 4.77914C18.3793 5.07341 19.405 5.76263 20.1174 6.72909C20.8299 7.69556 21.1848 8.87935 21.1214 10.0783V15.8844C21.1377 16.6259 21.0068 17.3632 20.736 18.0537C20.4652 18.7442 20.0601 19.374 19.5441 19.9068C19.0945 20.3574 18.5589 20.7129 17.9692 20.9526C17.3795 21.1922 16.7476 21.3109 16.1112 21.3017H7.40111L7.40592 21.2998Z" fill="#1E1E1E"/>
</svg>
