<svg width="24" height="24" viewBox="0 0 34 34" fill="none" xmlns="http://www.w3.org/2000/svg">
<path d="M13.3722 13.6735V13.6076M21.6281 13.6735V13.6076M11.2589 27.1507L10.3879 20.4082L6.005 17.6846M23.7379 27.1482L24.6455 20.4062L28.9981 17.6846M10.3874 20.4049C11.791 20.0419 13.6074 19.4724 15.8228 18.4803C16.9728 17.9719 18.292 17.9719 19.442 18.4803C21.5368 19.4127 23.2674 20.0294 24.6474 20.4049M13.314 13.4121C13.1556 13.4121 13.0265 13.5412 13.0278 13.6996C13.0278 13.8581 13.1568 13.9871 13.3153 13.9871C13.4737 13.9871 13.6028 13.8581 13.6028 13.6996C13.6028 13.5399 13.4737 13.4121 13.314 13.4121ZM21.6196 13.4121C21.4611 13.4121 21.3321 13.5412 21.3333 13.6996C21.3333 13.8581 21.4624 13.9871 21.6208 13.9871C21.7793 13.9871 21.9083 13.8581 21.9083 13.6996C21.9083 13.5399 21.7793 13.4121 21.6196 13.4121ZM17.5 29C23.8517 29 29 23.8504 29 17.5C29 11.1483 23.8517 6 17.5 6C11.1483 6 6 11.1483 6 17.5C6 23.8504 11.1483 29 17.5 29Z" stroke="#1E1E1E" stroke-width="2.5" stroke-linecap="round" stroke-linejoin="round"/>
</svg>
