<svg width="24" height="24" viewBox="0 0 24 24" fill="none" xmlns="http://www.w3.org/2000/svg">
<path d="M16.8661 7.36569V7.43469M7.78216 3H16.2169C19.165 3 21 5.08119 21 8.02638V15.9736C21 18.9188 19.165 21 16.2159 21H7.78216C4.83405 21 3 18.9188 3 15.9736V8.02638C3 5.08119 4.84281 3 7.78216 3ZM11.8445 8.82617C9.91023 8.82617 8.3418 10.3946 8.3418 12.3289C8.3418 14.2631 9.91023 15.8316 11.8445 15.8316C13.7788 15.8316 15.3472 14.2631 15.3472 12.3289C15.3472 10.3946 13.7788 8.82617 11.8445 8.82617ZM17.1481 7.38071C17.1481 7.53771 17.0211 7.6647 16.8641 7.6647C16.7071 7.6647 16.5791 7.53771 16.5791 7.38071C16.5791 7.22371 16.7071 7.0957 16.8641 7.0957C17.0211 7.0957 17.1481 7.22371 17.1481 7.38071Z" stroke="white" stroke-width="1.5" stroke-linecap="round" stroke-linejoin="round"/>
</svg>
