<svg width="180" height="30" viewBox="0 0 180 30" fill="none" xmlns="http://www.w3.org/2000/svg">
<g clip-path="url(#clip0_174_1483)">
<path d="M30.1453 21.0592V21.141C30.4027 22.4197 31.0621 23.5657 32.0139 24.3885C33.0379 25.2048 34.2945 25.6181 35.571 25.5582C37.6132 25.5582 39.1141 24.9147 40.0739 23.6277H44.9597C44.2705 25.5363 43.0316 27.1618 41.4217 28.2699C39.6755 29.4536 37.6385 30.0545 35.571 29.9958C34.1575 30.0152 32.7536 29.7444 31.4357 29.1983C30.233 28.6907 29.135 27.9362 28.204 26.9774C27.2846 26.0173 26.5634 24.8624 26.0866 23.5868C25.086 20.8377 25.086 17.7879 26.0866 15.0388C26.563 13.7643 27.2844 12.6106 28.204 11.6523C29.134 10.6921 30.2322 9.9374 31.4357 9.43145C34.0952 8.36269 37.0277 8.36269 39.6872 9.43145C40.8891 9.91798 41.9821 10.6684 42.8956 11.6343C43.8091 12.6002 44.5227 13.76 44.9903 15.0388C45.5045 16.3964 45.7647 17.8484 45.7561 19.3128V21.0592H30.1453ZM35.571 13.0633C34.3575 13.0159 33.1625 13.392 32.167 14.1349C31.2448 14.8544 30.5716 15.8798 30.2525 17.0511V17.1329H40.8703V17.0511C40.5521 15.8794 39.8787 14.8537 38.9559 14.1349C37.9647 13.3984 36.7778 13.0227 35.571 13.0633Z" fill="white"/>
<path d="M47.8583 29.4039V25.3149L58.6508 13.4217V13.3395H48.4407V9.00391H64.7806V13.1135L53.9768 24.9861V25.0683H65.1474V29.4039H47.8583Z" fill="white"/>
<path d="M71.4933 6.57546C71.0981 6.58361 70.7057 6.50357 70.3401 6.34028C69.9746 6.17699 69.6437 5.93394 69.3681 5.62614C69.0809 5.32361 68.8546 4.95956 68.7036 4.55704C68.5526 4.15453 68.4801 3.72232 68.4908 3.28778C68.4805 2.85087 68.5531 2.41632 68.704 2.01121C68.855 1.60609 69.081 1.23907 69.3681 0.93299C69.9381 0.324104 70.7054 -0.0170898 71.5046 -0.0170898C72.3039 -0.0170898 73.0712 0.324104 73.6412 0.93299C73.9222 1.24274 74.1428 1.61098 74.2896 2.01562C74.4365 2.42026 74.5066 2.85297 74.4958 3.28778C74.5041 3.71611 74.4326 4.14184 74.2858 4.53942C74.1389 4.93701 73.9197 5.29825 73.6412 5.60148C73.3652 5.91722 73.0316 6.16692 72.6618 6.33462C72.2919 6.50233 71.894 6.58435 71.4933 6.57546ZM69.2509 29.4124V9.00422H73.7887V29.4042L69.2509 29.4124Z" fill="white"/>
<path d="M92.1661 29.4037V18.7886C92.1661 16.8379 91.735 15.3927 90.8728 14.453C89.9137 13.5469 88.6855 13.0479 87.4147 13.0479C86.1438 13.0479 84.9157 13.5469 83.9565 14.453C83.0943 15.39 82.6644 16.8352 82.667 18.7886V29.4037H78.1292V18.7886C78.1 17.264 78.3255 15.7463 78.7947 14.3092C79.1996 13.0973 79.8451 11.9973 80.6855 11.0872C81.5154 10.2062 82.5151 9.53659 83.6123 9.12696C84.8289 8.67384 86.1079 8.45007 87.3939 8.46532C88.6846 8.44798 89.9691 8.66465 91.1943 9.10641C92.3057 9.4988 93.3198 10.1623 94.159 11.0461C95.0018 11.962 95.6476 13.0693 96.0497 14.2886C96.5158 15.7337 96.7412 17.2575 96.7153 18.7886V29.4037H92.1661Z" fill="white"/>
<path d="M106.987 29.4041V7.3109H99.575V2.37939H119.262V7.3109H111.85V29.4041H106.987Z" fill="white"/>
<path d="M139.16 29.4044H135.03V25.603H134.955C134.453 26.9224 133.574 28.0317 132.448 28.7674C131.191 29.5793 129.749 29.9869 128.288 29.9428C127.147 29.9382 126.015 29.7157 124.945 29.2852C123.834 28.8477 122.818 28.1649 121.962 27.2798C121.052 26.3316 120.328 25.1939 119.833 23.9345C119.259 22.4386 118.981 20.8286 119.016 19.2085C119.009 17.7373 119.266 16.2787 119.772 14.914C120.242 13.6319 120.954 12.4713 121.863 11.5071C122.782 10.5424 123.866 9.78403 125.055 9.27564C126.355 8.71789 127.741 8.43878 129.139 8.45372C130.528 8.43874 131.908 8.70492 133.208 9.23866C134.397 9.72381 135.478 10.4773 136.38 11.4496C137.272 12.4278 137.97 13.5943 138.43 14.877C138.946 16.3032 139.202 17.8243 139.186 19.3565L139.16 29.4044ZM129.139 25.3565C130.813 25.3565 132.149 24.7852 133.147 23.6428C133.656 23.0477 134.052 22.3493 134.311 21.5876C134.571 20.826 134.689 20.016 134.66 19.2044C134.69 18.3921 134.571 17.5814 134.312 16.819C134.052 16.0566 133.656 15.3575 133.147 14.7619C132.627 14.187 132.001 13.7373 131.311 13.442C130.62 13.1468 129.88 13.0126 129.139 13.0482C128.395 13.0136 127.652 13.1481 126.959 13.4432C126.265 13.7383 125.636 14.1874 125.112 14.7619C124.602 15.3575 124.206 16.0566 123.947 16.819C123.687 17.5814 123.569 18.3921 123.599 19.2044C123.568 20.0163 123.685 20.8267 123.945 21.5887C124.205 22.3507 124.601 23.0489 125.112 23.6428C125.636 24.2181 126.265 24.6678 126.958 24.963C127.652 25.2581 128.395 25.3921 129.139 25.3565Z" fill="white"/>
<path d="M153.042 14.8682C153.019 14.561 152.932 14.2634 152.787 13.9984C152.642 13.7334 152.443 13.508 152.206 13.3395C151.583 12.9202 150.858 12.718 150.126 12.76C149.118 12.76 148.361 12.9806 147.857 13.4217C147.619 13.6205 147.426 13.8771 147.295 14.171C147.163 14.4649 147.097 14.7881 147.101 15.1148C147.091 15.3925 147.163 15.6663 147.307 15.8962C147.45 16.1261 147.658 16.3002 147.899 16.3929C148.546 16.6771 149.223 16.8718 149.914 16.9723C150.724 17.1121 151.593 17.2477 152.516 17.3833C153.418 17.5104 154.297 17.7876 155.121 18.2052C155.918 18.6042 156.61 19.2147 157.133 19.9806C157.668 20.7477 157.934 21.8354 157.931 23.2436C157.943 24.171 157.756 25.0888 157.386 25.9246C157.016 26.7604 156.473 27.4914 155.798 28.06C155.055 28.6857 154.212 29.1554 153.31 29.4449C152.256 29.786 151.161 29.9522 150.062 29.9381C148.968 29.9535 147.879 29.7872 146.832 29.4449C145.941 29.1534 145.105 28.6914 144.363 28.0806C143.698 27.5316 143.154 26.83 142.767 26.0258C142.39 25.2019 142.191 24.2953 142.185 23.3751H146.723C146.732 23.7039 146.814 24.0254 146.963 24.3118C147.112 24.5982 147.323 24.8409 147.577 25.0189C148.122 25.4299 148.926 25.6354 149.99 25.6354C151.208 25.6354 152.075 25.4162 152.592 24.9778C152.84 24.778 153.041 24.516 153.176 24.2142C153.312 23.9123 153.378 23.5794 153.371 23.2436C153.383 22.9673 153.312 22.6942 153.168 22.4662C153.024 22.2382 152.815 22.0681 152.573 21.9819C151.924 21.7168 151.249 21.536 150.561 21.4436L147.955 21.0326C147.056 20.8963 146.18 20.6194 145.354 20.2107C144.548 19.8153 143.853 19.1958 143.338 18.4148C142.82 17.671 142.563 16.5449 142.563 15.1148C142.554 14.1948 142.736 13.2844 143.096 12.4518C143.454 11.638 143.97 10.9186 144.609 10.3436C145.305 9.72203 146.105 9.25309 146.965 8.96275C147.966 8.6183 149.012 8.45042 150.062 8.4655C151.106 8.44875 152.145 8.61669 153.14 8.96275C153.989 9.25647 154.781 9.71758 155.477 10.323C156.108 10.8743 156.623 11.5649 156.99 12.3491C157.348 13.1331 157.543 13.9932 157.561 14.8682H153.042Z" fill="white"/>
<path d="M166.076 29.4044H161.539V0.0825195H166.076V11.7291H166.152C166.703 10.744 167.474 9.92681 168.394 9.35375C169.396 8.74099 170.532 8.43426 171.681 8.46608C172.756 8.46414 173.823 8.66722 174.834 9.06608C175.844 9.46149 176.763 10.088 177.531 10.9031C178.367 11.8084 179.012 12.9008 179.421 14.1044C179.921 15.6053 180.159 17.1939 180.125 18.7894V29.4044H175.587V18.7894C175.587 16.8387 175.156 15.3935 174.294 14.4538C173.343 13.5406 172.116 13.0401 170.847 13.0477C169.578 13.0552 168.357 13.5704 167.415 14.4948C166.53 15.4592 166.088 16.8907 166.088 18.7894L166.076 29.4044Z" fill="white"/>
</g>
<path d="M8.57839 8.8919H8.53669L8.60222 8.92402V8.87906L8.57839 8.8919ZM0.10723 7.60735L0.0774438 7.67158L0.113187 7.60735H0.10723ZM12.9629 25.1159C12.9392 25.1509 12.9211 25.19 12.9093 25.2315C12.9093 25.2636 12.9093 25.2957 12.8795 25.3278C12.9051 25.2989 12.9271 25.2665 12.945 25.2315C12.9457 25.1922 12.9517 25.1532 12.9629 25.1159ZM21.446 10.9022C20.9004 9.28358 20.0251 7.81745 18.8844 6.61182C17.6928 5.3813 16.271 4.43965 14.7143 3.85002C12.8383 3.16849 10.8675 2.84042 8.88816 2.88018H0V4.29961C0.159324 4.59862 0.254963 4.9321 0.279989 5.27588C0.282384 5.3208 0.282384 5.36583 0.279989 5.41076V5.44929C0.339761 5.51923 0.388103 5.59958 0.422962 5.68694C0.443288 5.7366 0.459244 5.78821 0.47062 5.84108C0.513734 6.05265 0.513734 6.27179 0.47062 6.48336C0.47062 6.5797 0.434877 6.67604 0.411048 6.77239C0.387219 6.86873 0.411048 6.87515 0.375304 6.92011C0.339561 6.96507 0.333604 7.07426 0.309775 7.13848L0.238289 7.34401C0.235728 7.36963 0.235728 7.39547 0.238289 7.42109L0.196588 7.52385L0.160845 7.60093C0.211592 7.56878 0.26555 7.54292 0.32169 7.52385L0.643379 7.37613C0.768481 7.32475 0.887625 7.28621 1.00677 7.24767L1.37016 7.14491C1.4893 7.14491 1.60845 7.08068 1.72759 7.06141C1.83969 7.03378 1.95303 7.01235 2.06715 6.99718L2.41267 6.95222H2.66883H2.74032C3.08949 6.9296 3.43961 6.9296 3.78879 6.95222H4.03899C4.32709 6.97947 4.61351 7.0245 4.89683 7.0871C4.99575 7.07413 5.09577 7.07413 5.19469 7.0871H5.36149H5.42702C5.48844 7.08085 5.55027 7.08085 5.6117 7.0871C5.66507 7.09738 5.71708 7.11464 5.76658 7.13848C5.9123 7.18545 6.04657 7.26661 6.15976 7.37613C6.32455 7.67197 6.40339 8.01423 6.38613 8.35881C6.38613 8.35881 6.38613 8.4102 6.38613 8.43589C7.44652 8.47442 8.1316 8.57077 8.1316 8.57077C8.19866 8.57648 8.26474 8.5916 8.32818 8.61573H8.41754L8.53073 8.67353L8.63796 8.74418L8.66775 8.6928C8.77488 8.53827 8.89449 8.39426 9.02518 8.26247C9.09661 8.18897 9.17222 8.12033 9.25155 8.05694L9.4541 8.01841L9.59111 7.92849C9.75824 7.82615 9.93912 7.75248 10.1273 7.71011C10.9135 7.53034 11.7093 7.40377 12.5101 7.33117C12.4308 6.82853 12.3989 6.31854 12.4148 5.80897C12.4506 5.07677 12.9331 5.26303 12.8557 5.16669C12.7782 5.07035 12.7663 4.88409 12.6531 4.52441C12.5399 4.16474 13.779 3.88213 13.9161 3.93352C13.5531 4.02259 13.2158 4.20555 12.9331 4.46661C12.9331 4.46661 12.9331 4.50514 12.9331 4.51799C12.9977 4.54904 13.0658 4.57064 13.1357 4.58222C13.1554 4.58538 13.1755 4.58538 13.1952 4.58222C13.226 4.64058 13.2744 4.68589 13.3322 4.71067C13.4387 4.69151 13.5474 4.69151 13.6539 4.71067C13.7671 4.81986 13.5944 4.96116 13.4395 5.17954L13.3859 5.23734H13.4276C13.3753 5.32569 13.3333 5.42059 13.3025 5.51994C13.1493 6.09317 13.0319 6.67681 12.951 7.26694H13.0523C13.0523 7.35044 13.0106 7.44036 12.9867 7.52385C12.9198 7.83806 12.7508 8.11604 12.5101 8.30743C12.2964 8.44315 12.0592 8.53056 11.8132 8.56434C11.3187 8.56434 10.7289 8.52581 10.026 8.48727H9.91876C9.84298 8.46281 9.76221 8.46281 9.68643 8.48727H9.65664H9.62686C9.62277 8.49974 9.62277 8.51334 9.62686 8.52581C9.60144 8.56077 9.58685 8.60345 9.58516 8.64784C9.58516 8.69922 9.58516 8.7506 9.58516 8.80841C9.58516 8.86621 9.54346 8.94971 9.52558 9.01394C9.64972 9.06414 9.77105 9.12204 9.88898 9.18735C9.95194 9.24398 9.99878 9.31866 10.0241 9.40275C10.0494 9.48685 10.0521 9.57694 10.0319 9.66264V9.81036C10.5245 9.88322 11.002 10.0461 11.4438 10.2921L11.6821 10.4526L11.8787 10.6004C12.2689 10.8974 12.6127 11.2595 12.8974 11.673L12.9808 11.795C12.9931 11.825 13.0091 11.8531 13.0284 11.8785C13.082 11.9684 13.1357 12.0583 13.1833 12.1483C13.231 12.2382 13.3382 12.463 13.4037 12.63C13.4693 12.797 13.5586 13.0474 13.6241 13.2722C13.6718 13.4328 13.7135 13.5998 13.7552 13.7604C13.7969 13.9209 13.791 13.9274 13.8088 14.0044C13.934 14.1463 14.0457 14.3012 14.1424 14.4669C14.1841 14.5375 14.2199 14.621 14.2556 14.6981C14.2755 14.6756 14.2916 14.6495 14.3033 14.621C14.3296 14.5766 14.3459 14.5263 14.3511 14.4739C14.3563 14.4215 14.3501 14.3685 14.3331 14.3192C14.2336 14.2728 14.1478 14.198 14.0848 14.103C14.0218 14.0079 13.9841 13.8961 13.9756 13.7796C13.9766 13.7171 13.9909 13.6555 14.0173 13.5998C14.0876 13.5993 14.157 13.6165 14.2201 13.6499C14.2832 13.6833 14.3382 13.7322 14.3807 13.7925C14.408 13.7663 14.4339 13.7384 14.4582 13.709C14.4582 13.709 14.4582 13.709 14.4582 13.6769C14.4582 13.6448 14.4582 13.6769 14.4582 13.6769C14.4672 13.626 14.4672 13.5737 14.4582 13.5227C14.4888 13.4677 14.527 13.4179 14.5713 13.375C14.5713 13.375 14.5713 13.0153 14.5713 12.9832C14.5844 12.8772 14.6282 12.7782 14.6964 12.7006C14.7378 12.6508 14.7837 12.6056 14.8335 12.5657C14.8153 12.5314 14.8013 12.4947 14.7918 12.4566C14.795 12.323 14.8299 12.1925 14.893 12.0776C14.9414 12.0063 14.993 11.9377 15.0479 11.8721C15.084 11.863 15.1166 11.842 15.1411 11.8121C15.1657 11.7822 15.181 11.7448 15.1849 11.7051C15.1849 11.4096 15.1849 11.1656 15.453 11.0114C15.4563 10.9988 15.4563 10.9855 15.453 10.9729V10.8894L15.4828 10.7738C15.5155 10.6715 15.5731 10.5805 15.6496 10.5104L15.7807 10.4077C15.7807 10.4077 15.8164 10.215 15.8283 10.1893C15.9372 9.9906 16.1083 9.84029 16.3109 9.7654C16.424 9.7076 16.3943 9.60483 16.4836 9.52134C16.5419 9.47552 16.6091 9.44476 16.6802 9.43142C16.6774 9.32563 16.7114 9.22253 16.7755 9.14239L16.8232 9.09101C16.8949 9.04838 16.974 9.02214 17.0555 9.01394C17.0604 9.01517 17.0656 9.01503 17.0704 9.01353C17.0753 9.01203 17.0797 9.00922 17.0833 9.00536C17.0869 9.00151 17.0895 8.99673 17.0909 8.99149C17.0923 8.98625 17.0924 8.98071 17.0912 8.9754C17.0915 8.81928 17.1444 8.66859 17.2402 8.5515C17.3483 8.46823 17.4768 8.4213 17.6095 8.41662C17.7677 8.39406 17.9279 8.39406 18.0861 8.41662L18.1397 8.46158C18.1637 8.47537 18.1842 8.49526 18.1994 8.51952C18.2146 8.54379 18.2241 8.5717 18.227 8.60082C18.23 8.62994 18.2263 8.65939 18.2162 8.68661C18.2062 8.71384 18.1902 8.73801 18.1695 8.75703C17.9817 8.9282 17.7521 9.03746 17.5083 9.07174C17.5157 9.08419 17.5196 9.09868 17.5196 9.11349C17.5196 9.1283 17.5157 9.14279 17.5083 9.15524C17.4354 9.25807 17.3288 9.32699 17.2104 9.34792C17.1141 9.48006 16.9972 9.59308 16.8649 9.68191L16.8172 9.72044C16.7945 9.84591 16.7376 9.96122 16.6538 10.0516C16.5699 10.142 16.463 10.2034 16.3466 10.2278H16.3168C16.2888 10.3235 16.2425 10.4118 16.1809 10.487C16.1194 10.5622 16.0439 10.6227 15.9594 10.6646C15.9594 10.6646 15.9594 10.6646 15.9296 10.6646C15.9402 10.7473 15.9233 10.8314 15.8818 10.902C15.8404 10.9725 15.7771 11.0249 15.7032 11.05C15.7047 11.0606 15.7047 11.0714 15.7032 11.0821C15.7061 11.1184 15.7061 11.1549 15.7032 11.1913C15.7059 11.2653 15.6894 11.3387 15.6556 11.4032C15.6212 11.4724 15.577 11.5352 15.5245 11.5895L15.459 11.6537C15.4686 11.7587 15.4571 11.8647 15.4253 11.9645C15.3934 12.0643 15.3419 12.1554 15.2743 12.2318C15.2743 12.2318 15.2743 12.2318 15.2743 12.2703C15.2776 12.2851 15.2776 12.3005 15.2743 12.3152C15.2651 12.4931 15.2247 12.6675 15.1552 12.8291C15.0931 12.9111 15.0354 12.9969 14.9824 13.086C14.9824 13.086 14.9526 13.1374 14.9824 13.1502C14.9958 13.1671 15.0059 13.1868 15.0122 13.208C15.0288 13.2822 15.0181 13.3605 14.9824 13.4264C14.9488 13.4888 14.9088 13.547 14.8632 13.5998L14.8335 13.6383C14.8368 13.6596 14.8368 13.6813 14.8335 13.7026C14.8631 13.8421 14.8631 13.987 14.8335 14.1265C14.8204 14.2747 14.7703 14.4163 14.6885 14.5362C14.6067 14.6561 14.4962 14.7498 14.3688 14.8073C14.4926 15.1978 14.5531 15.6085 14.5475 16.0212C14.5604 16.5413 14.4626 17.0576 14.2616 17.5305C14.4192 17.5611 14.563 17.6469 14.6708 17.7747C14.7785 17.9024 14.8441 18.065 14.8573 18.2371C14.8868 18.3787 14.8868 18.5257 14.8573 18.6674C14.8597 18.6887 14.8597 18.7103 14.8573 18.7316C14.8573 18.7316 14.8573 18.7316 14.8573 18.7637C14.9046 18.8174 14.9447 18.8779 14.9764 18.9436C15.0128 19.0092 15.0235 19.0878 15.0062 19.1619L14.9764 19.2197C14.9764 19.2197 14.9764 19.2519 14.9764 19.284L15.1492 19.5409C15.2187 19.7025 15.2592 19.8768 15.2683 20.0547C15.2708 20.0696 15.2708 20.0848 15.2683 20.0997C15.2683 20.0997 15.2683 20.0997 15.31 20.1639C15.377 20.2407 15.4281 20.3319 15.4599 20.4316C15.4917 20.5312 15.5036 20.637 15.4947 20.7419L15.5602 20.7997C15.6127 20.854 15.657 20.9169 15.6913 20.986C15.7238 21.0511 15.7402 21.1241 15.739 21.198C15.7418 21.2343 15.7418 21.2708 15.739 21.3071C15.739 21.3071 15.739 21.3071 15.739 21.3457C15.814 21.3695 15.8786 21.4214 15.9212 21.4921C15.9638 21.5627 15.9816 21.6475 15.9713 21.7311C15.9713 21.7311 15.9713 21.7311 16.0011 21.7311C16.0856 21.773 16.1611 21.8335 16.2226 21.9087C16.2842 21.9839 16.3305 22.0722 16.3585 22.1678C16.4811 22.1867 16.5952 22.2464 16.6849 22.3385C16.7746 22.4306 16.8354 22.5505 16.8589 22.6816L16.9066 22.7202C17.0391 22.8112 17.1561 22.9264 17.2521 23.0606C17.3698 23.0792 17.4765 23.1459 17.55 23.2468C17.5574 23.2593 17.5613 23.2738 17.5613 23.2886C17.5613 23.3034 17.5574 23.3179 17.55 23.3303C17.7938 23.3646 18.0234 23.4739 18.2112 23.645C18.2269 23.6612 18.2394 23.6807 18.2479 23.7022C18.2564 23.7237 18.2608 23.7469 18.2608 23.7703C18.2608 23.7937 18.2564 23.8169 18.2479 23.8384C18.2394 23.8599 18.2269 23.8793 18.2112 23.8955C18.1815 23.9305 18.1474 23.9607 18.1099 23.9854C17.952 24.0112 17.7913 24.0112 17.6334 23.9854C17.5001 23.9841 17.3706 23.9368 17.264 23.8506C17.1682 23.7335 17.1153 23.5828 17.1151 23.4267C17.1151 23.4267 17.1151 23.4267 17.0793 23.3881C16.9974 23.3822 16.9179 23.3558 16.847 23.3111L16.7993 23.2597C16.7351 23.1822 16.7009 23.081 16.704 22.9771C16.622 22.9575 16.5461 22.9155 16.4836 22.855C16.3943 22.778 16.424 22.6688 16.3109 22.611C16.1077 22.5408 15.9358 22.3921 15.8283 22.1935C15.8283 22.1935 15.7866 21.9751 15.7807 21.9687L15.6496 21.8659C15.572 21.797 15.5141 21.7057 15.4828 21.6026L15.453 21.4934V21.7632C15.4556 21.7505 15.4556 21.7373 15.453 21.7246C15.173 21.5705 15.1909 21.3264 15.1849 21.031C15.1849 20.941 15.1194 20.8961 15.0479 20.864L14.893 20.6649C14.8306 20.5473 14.7958 20.415 14.7918 20.2795C14.8025 20.2418 14.8165 20.2053 14.8335 20.1703C14.7823 20.1323 14.7362 20.0869 14.6964 20.0354C14.6282 19.9578 14.5844 19.8589 14.5713 19.7528V19.3675C14.5282 19.321 14.4903 19.2692 14.4582 19.2133C14.4668 19.1624 14.4668 19.1101 14.4582 19.0592C14.4185 19.0057 14.3724 18.9582 14.3211 18.9179C14.2832 18.9589 14.2374 18.9904 14.187 19.0104C14.1366 19.0304 14.0828 19.0383 14.0292 19.0335C14.0022 18.978 13.9879 18.9163 13.9875 18.8536C13.996 18.7372 14.0337 18.6254 14.0967 18.5303C14.1597 18.4353 14.2455 18.3605 14.345 18.3141C14.3464 18.2514 14.3274 18.19 14.2914 18.1407C14.2791 18.1091 14.2608 18.0807 14.2377 18.0572C14.2121 18.0188 14.1797 17.986 14.1424 17.9609L14.0531 18.1086C13.9752 18.2262 13.8875 18.3359 13.7909 18.4362C13.7909 18.5582 13.7433 18.6738 13.7135 18.7894C13.5599 19.4955 13.2663 20.1573 12.8529 20.7294C12.4395 21.3015 11.9161 21.7703 11.3187 22.1036C11.2269 22.1604 11.1313 22.2098 11.0328 22.2513L10.8302 22.3412L10.6753 22.399H10.5979L10.2822 22.4889L10.0796 22.5339L9.89493 22.566V22.6559C9.89823 22.703 9.89823 22.7502 9.89493 22.7972C9.91509 22.8829 9.91236 22.973 9.88706 23.0571C9.86176 23.1412 9.81493 23.2159 9.75196 23.2725C9.63371 23.3352 9.5124 23.3909 9.38857 23.4395C9.38857 23.5037 9.43027 23.5744 9.44814 23.6515C9.451 23.7028 9.451 23.7543 9.44814 23.8056C9.45432 23.867 9.47711 23.9251 9.51367 23.9726H9.55537C9.62221 23.9871 9.69107 23.9871 9.75792 23.9726H9.86515C10.5502 23.9726 11.14 23.9148 11.6523 23.902C11.8986 23.9306 12.1363 24.016 12.3493 24.1524C12.5957 24.3343 12.7733 24.6055 12.8497 24.9168C12.8497 25.0002 12.8974 25.0837 12.9152 25.1737H12.814C12.8942 25.766 13.0116 26.3519 13.1654 26.9271C13.195 27.025 13.2371 27.1179 13.2905 27.2033H13.2488L13.3025 27.2611C13.4573 27.4794 13.6301 27.6207 13.5169 27.7364H13.4693C13.4344 27.76 13.3961 27.7773 13.3561 27.7877H13.2965H13.225C13.1595 27.7877 13.0999 27.7877 13.0582 27.7877C13.0488 27.7835 13.0387 27.7813 13.0284 27.7813C13.0182 27.7813 13.0081 27.7835 12.9986 27.7877C13.0051 27.8192 13.0195 27.8481 13.0403 27.8712C13.2012 28.0768 13.8624 28.3594 13.779 28.43C13.642 28.4878 12.397 28.2245 12.5161 27.8327C12.6353 27.4409 12.6353 27.2611 12.7187 27.1904C12.8021 27.1198 12.3136 27.2739 12.2778 26.5481C12.317 26.0919 12.3948 25.6404 12.5101 25.1994C11.7091 25.1249 10.9133 24.9962 10.1273 24.814C9.9429 24.7683 9.7661 24.6925 9.60303 24.5892L9.53154 24.5507C9.50611 24.5396 9.48361 24.5219 9.46601 24.4993L9.34687 24.4158C9.16759 24.2709 9.00376 24.105 8.85838 23.9212C8.79902 23.8451 8.74335 23.7658 8.69158 23.6836H8.65583C8.5069 23.7936 8.33495 23.862 8.15543 23.8827C8.15543 23.8827 7.47035 23.9726 6.41592 24.0111C6.41592 24.0689 6.41592 24.1203 6.41592 24.1781C6.43345 24.5207 6.35455 24.861 6.18955 25.1544C6.08089 25.2639 5.95049 25.3451 5.80828 25.392C5.64517 25.4282 5.47694 25.4282 5.31383 25.392H5.20065L5.01002 25.437H4.93853H4.80151C4.61684 25.4691 4.42621 25.5012 4.20579 25.5269H3.9675H3.77092C3.42383 25.5528 3.07549 25.5528 2.7284 25.5269H2.66883C2.52122 25.5209 2.37404 25.5059 2.228 25.482L1.90631 25.4306C1.72163 25.4306 1.53696 25.3535 1.31059 25.3021L0.976983 25.2058L0.661251 25.0966L0.595721 25.1287L0.303818 25.0067L0.142973 24.9296L0.0953154 24.8397L0.14893 24.9553L0.184674 25.0324L0.226374 25.1415C0.224791 25.1651 0.224791 25.1887 0.226374 25.2122L0.297861 25.4177C0.297861 25.4884 0.339561 25.559 0.36339 25.6361L0.399133 25.7838C0.399133 25.8802 0.440834 25.9829 0.458705 26.0793C0.502592 26.2908 0.502592 26.5101 0.458705 26.7216C0.458705 26.7922 0.422962 26.85 0.405091 26.9014C0.368709 26.9879 0.320516 27.068 0.262117 27.139C0.264244 27.184 0.264244 27.229 0.262117 27.2739C0.239915 27.6076 0.150463 27.932 0 28.2245V29.9972H8.93582C10.9097 30.036 12.8749 29.7057 14.7441 29.0209C16.303 28.4362 17.7257 27.494 18.9142 26.2591C20.0424 25.0588 20.9074 23.6016 21.446 21.9944C22.0392 20.2129 22.3318 18.3313 22.3098 16.4387C22.3283 14.5526 22.0358 12.678 21.446 10.9022Z" fill="#FCE500"/>
<defs>
<clipPath id="clip0_174_1483">
<rect width="155.42" height="30" fill="white" transform="translate(24.5798)"/>
</clipPath>
</defs>
</svg>
