<svg width="20" height="20" viewBox="0 0 24 24" fill="none" xmlns="http://www.w3.org/2000/svg">
<path fill-rule="evenodd" clip-rule="evenodd" d="M15.2516 5.12344C15.6492 5.12344 15.9716 5.44579 15.9716 5.84344V9.16696C15.9716 9.5646 15.6492 9.88696 15.2516 9.88696C14.854 9.88696 14.5316 9.5646 14.5316 9.16696V5.84344C14.5316 5.44579 14.854 5.12344 15.2516 5.12344Z" fill="#1E1E1E"/>
<path fill-rule="evenodd" clip-rule="evenodd" d="M16.9385 12.7997C15.4254 12.7997 14.1988 14.0267 14.1988 15.5404C14.1988 16.5083 14.7859 17.5448 15.5393 18.3932C15.9053 18.8053 16.2838 19.1423 16.5923 19.3705C16.7333 19.4747 16.8508 19.5497 16.9385 19.5977C17.0262 19.5497 17.1437 19.4747 17.2847 19.3705C17.5933 19.1423 17.9717 18.8053 18.3378 18.3932C19.0911 17.5448 19.6783 16.5083 19.6783 15.5404C19.6783 14.0267 18.4517 12.7997 16.9385 12.7997ZM12.7588 15.5404C12.7588 13.2319 14.6295 11.3597 16.9385 11.3597C19.2475 11.3597 21.1183 13.2319 21.1183 15.5404C21.1183 17.0347 20.2525 18.4057 19.4144 19.3494C18.9847 19.8332 18.5329 20.2384 18.1409 20.5283C17.9456 20.6726 17.7544 20.7965 17.5794 20.8878C17.4391 20.9611 17.1973 21.0755 16.9385 21.0755C16.6798 21.0755 16.4379 20.9611 16.2977 20.8878C16.1226 20.7965 15.9314 20.6726 15.7362 20.5283C15.3441 20.2384 14.8923 19.8332 14.4626 19.3494C13.6246 18.4057 12.7588 17.0347 12.7588 15.5404Z" fill="#1E1E1E"/>
<path fill-rule="evenodd" clip-rule="evenodd" d="M16.9381 14.5509C17.4683 14.5509 17.8981 14.9808 17.8981 15.5109V15.623C17.8981 16.1532 17.4683 16.583 16.9381 16.583C16.4079 16.583 15.9781 16.1532 15.9781 15.623V15.5109C15.9781 14.9808 16.4079 14.5509 16.9381 14.5509Z" fill="#1E1E1E"/>
<path fill-rule="evenodd" clip-rule="evenodd" d="M8.1937 4.43085L4.49431 6.0746C4.09575 6.25155 3.83844 6.64676 3.83844 7.083V19.1221C3.83844 19.3198 4.04133 19.4508 4.22057 19.3711L7.60973 17.8672C8.1193 17.6411 8.69552 17.6219 9.21854 17.8107L9.22049 17.8114L11.2773 18.5605C11.6509 18.6965 11.8435 19.1098 11.7075 19.4835C11.5713 19.8571 11.1581 20.0497 10.7845 19.9135L8.72963 19.1651C8.55426 19.1021 8.36207 19.1088 8.19383 19.1834M8.19383 19.1834L4.80542 20.6871C3.67333 21.19 2.39844 20.361 2.39844 19.1221V7.083C2.39844 6.07712 2.99124 5.16647 3.90959 4.75866L7.60942 3.1147C8.11866 2.88885 8.69588 2.86891 9.21939 3.05966L14.6255 5.02356C14.7995 5.08643 14.9921 5.07984 15.1607 5.00513L18.5417 3.50174L18.5431 3.50108C19.6786 2.99189 20.9533 3.82462 20.9533 5.06541V9.477C20.9533 9.87465 20.6309 10.197 20.2333 10.197C19.8357 10.197 19.5133 9.87465 19.5133 9.477V5.06541C19.5133 4.86269 19.3095 4.73539 19.1321 4.81515L19.1294 4.81633L15.7453 6.32111C15.2359 6.54703 14.658 6.56676 14.1354 6.3776L8.72731 4.41297C8.55417 4.34984 8.36242 4.35606 8.1937 4.43085" fill="#1E1E1E"/>
<path fill-rule="evenodd" clip-rule="evenodd" d="M8.43125 2.94469C8.82889 2.94469 9.15125 3.26704 9.15125 3.66469V18.4023C9.15125 18.8 8.82889 19.1223 8.43125 19.1223C8.03361 19.1223 7.71125 18.8 7.71125 18.4023V3.66469C7.71125 3.26704 8.03361 2.94469 8.43125 2.94469Z" fill="#1E1E1E"/>
</svg>
