<svg width="24" height="24" viewBox="0 0 32 32" fill="none" xmlns="http://www.w3.org/2000/svg">
<path fill-rule="evenodd" clip-rule="evenodd" d="M4.47998 24.96C4.47998 24.4298 4.90979 24 5.43998 24H25.92C26.4502 24 26.88 24.4298 26.88 24.96C26.88 25.4902 26.4502 25.92 25.92 25.92H5.43998C4.90979 25.92 4.47998 25.4902 4.47998 24.96Z" fill="#1E1E1E"/>
<path fill-rule="evenodd" clip-rule="evenodd" d="M4.47998 7.04C4.47998 6.50981 4.90979 6.08 5.43998 6.08H25.92C26.4502 6.08 26.88 6.50981 26.88 7.04C26.88 7.57019 26.4502 8 25.92 8H5.43998C4.90979 8 4.47998 7.57019 4.47998 7.04Z" fill="#1E1E1E"/>
<path fill-rule="evenodd" clip-rule="evenodd" d="M4.47998 16C4.47998 15.4698 4.90979 15.04 5.43998 15.04H25.92C26.4502 15.04 26.88 15.4698 26.88 16C26.88 16.5302 26.4502 16.96 25.92 16.96H5.43998C4.90979 16.96 4.47998 16.5302 4.47998 16Z" fill="#1E1E1E"/>
</svg>
