<svg width="24" height="24" viewBox="0 0 36 36" fill="none" xmlns="http://www.w3.org/2000/svg">
<path d="M16.3188 27.4062C13.7139 26.7452 11.7886 24.3851 11.7886 21.5756V17.5926C11.7886 14.2691 14.4828 11.5762 17.8049 11.5762H19.5646C21.9463 11.5762 24.007 12.9615 24.9804 14.9704M6.66703 28.1913L6.96656 26.4689C7.2272 24.8863 8.30866 23.5673 9.81058 22.9668L11.8323 22.1849M11.7864 17.5838C9.64512 17.424 7.51683 17.215 5.03859 18.2115M6.66703 7.57123L6.9608 9.29354C7.23008 10.8819 8.31007 12.2124 9.80767 12.8042L12.9483 14.0311M30.6939 7.57123L30.4001 9.29354C30.1294 10.8819 29.0508 12.2124 27.5532 12.8042L24.411 14.0311M14.6798 12.4652V9.74072C14.6798 7.52888 16.4712 5.73749 18.683 5.73749C20.8948 5.73749 22.6862 7.52888 22.6862 9.74072V12.4652M28.5042 27.3077L30.9609 29.7587M25.1836 18.8551C27.8778 18.8551 30.0623 21.0395 30.0623 23.7338C30.0623 26.428 27.8778 28.6138 25.1836 28.6138C22.4893 28.6138 20.3049 26.428 20.3049 23.7338C20.3049 21.0395 22.4893 18.8551 25.1836 18.8551Z" stroke="#1E1E1E" stroke-width="2.5" stroke-linecap="round" stroke-linejoin="round"/>
</svg>
