<svg width="24" height="24" viewBox="0 0 36 36" fill="none" xmlns="http://www.w3.org/2000/svg">
<path fill-rule="evenodd" clip-rule="evenodd" d="M9.41309 30C8.58467 30 7.91309 29.3284 7.91309 28.5V7.5C7.91309 6.67158 8.58467 6 9.41309 6C10.5701 6 11.7271 6 12.8841 6C13.7125 6 14.3841 6.67158 14.3841 7.5V28.5C14.3841 29.3284 13.7125 30 12.8841 30C11.7271 30 10.5701 30 9.41309 30Z" stroke="#1E1E1E" stroke-width="2.5" stroke-linecap="round" stroke-linejoin="round"/>
<path fill-rule="evenodd" clip-rule="evenodd" d="M23.1153 30C22.2869 30 21.6153 29.3284 21.6153 28.5V7.5C21.6153 6.67158 22.2869 6 23.1153 6C24.2723 6 25.4292 6 26.5863 6C27.4146 6 28.0863 6.67158 28.0863 7.5V28.5C28.0863 29.3284 27.4146 30 26.5863 30C25.4292 30 24.2723 30 23.1153 30Z" stroke="#1E1E1E" stroke-width="2.5" stroke-linecap="round" stroke-linejoin="round"/>
</svg>
