<svg width="24" height="24" viewBox="0 0 36 36" fill="none" xmlns="http://www.w3.org/2000/svg">
<path d="M27.918 7.92946L17.6076 18.2413M27.918 7.92946H30.9621M27.918 7.92946V4.88818M29.4163 18.4151C29.4163 11.6831 23.9587 6.22694 17.2281 6.22694C10.4961 6.22694 5.03857 11.6831 5.03857 18.4151C5.03857 25.1471 10.4961 30.6032 17.2281 30.6032C23.9587 30.6032 29.4163 25.1471 29.4163 18.4151ZM23.8304 18.4149C23.8304 14.7674 20.8739 11.8126 17.2293 11.8126C13.5833 11.8126 10.627 14.7674 10.627 18.4149C10.627 22.0596 13.5833 25.0159 17.2293 25.0159C20.8739 25.0159 23.8304 22.0596 23.8304 18.4149Z" stroke="#1E1E1E" stroke-width="2.5" stroke-linecap="round" stroke-linejoin="round"/>
</svg>
