<svg width="24" height="24" viewBox="0 0 36 36" fill="none" xmlns="http://www.w3.org/2000/svg">
<path fill-rule="evenodd" clip-rule="evenodd" d="M31.5 9.02342C29.4627 9.68452 27.8661 11.2811 27.2051 13.3183C26.544 11.2811 24.9474 9.68452 22.9101 9.02342C24.9474 8.36233 26.544 6.76579 27.2051 4.72852C27.8661 6.76579 29.4627 8.36233 31.5 9.02342Z" stroke="#1E1E1E" stroke-width="2.5" stroke-linecap="round" stroke-linejoin="round"/>
<path fill-rule="evenodd" clip-rule="evenodd" d="M19.0137 16.8447L26.1299 19.152C26.7911 19.3667 26.7911 20.3021 26.1299 20.5167L19.0137 22.824C18.7949 22.8956 18.624 23.0663 18.5525 23.2851L16.2452 30.4014C16.0307 31.0625 15.0951 31.0625 14.8806 30.4014L12.5732 23.2851C12.5032 23.0663 12.3309 22.8956 12.112 22.824L4.99584 20.5167C4.33472 20.3021 4.33472 19.3667 4.99584 19.152L12.112 16.8447C12.3309 16.7732 12.5032 16.6025 12.5732 16.3835L14.8806 9.26734C15.0951 8.60621 16.0307 8.60621 16.2452 9.26734L18.5525 16.3835C18.624 16.6025 18.7949 16.7732 19.0137 16.8447Z" stroke="#1E1E1E" stroke-width="2.5" stroke-linecap="round" stroke-linejoin="round"/>
</svg>
