<svg width="24" height="24" viewBox="0 0 28 28" fill="none" xmlns="http://www.w3.org/2000/svg">
<path fill-rule="evenodd" clip-rule="evenodd" d="M14.0004 6.48497C12.9033 6.48497 12.0147 7.37354 12.0147 8.47066V9.02005C12.4417 8.9118 12.8889 8.85427 13.3495 8.85427H14.6498C15.111 8.85427 15.5587 8.9119 15.9861 9.02034V8.47066C15.9861 7.37353 15.0976 6.48497 14.0004 6.48497ZM17.9306 9.96024V8.47066C17.9306 6.29963 16.1715 4.54053 14.0004 4.54053C11.8294 4.54053 10.0703 6.29962 10.0703 8.47066V9.95971C9.85931 10.1205 9.66048 10.2963 9.47542 10.4857L7.79859 9.83055C7.00845 9.51714 6.44001 8.81601 6.29777 7.97857L6.08161 6.70617C5.99169 6.17681 5.48966 5.82058 4.9603 5.9105C4.43094 6.00043 4.07471 6.50246 4.16463 7.03182L4.38078 8.30417C4.38078 8.30416 4.38078 8.30417 4.38078 8.30417C4.63716 9.8136 5.66283 11.0765 7.08486 11.6393L8.36815 12.1407C8.22014 12.4863 8.10704 12.8504 8.03331 13.2285C6.70588 13.147 5.22108 13.1595 3.5575 13.828C3.05927 14.0282 2.81768 14.5944 3.01788 15.0926C3.21809 15.5909 3.78427 15.8325 4.2825 15.6323C5.56914 15.1152 6.69869 15.0963 7.93309 15.1717V17.0044L7.09414 17.3289L7.08381 17.333C5.66965 17.8986 4.63603 19.1487 4.38631 20.6615L4.16537 21.9281C4.07309 22.457 4.42709 22.9606 4.95604 23.0529C5.485 23.1452 5.98861 22.7912 6.08088 22.2622L6.30264 20.991L6.30432 20.9811C6.43891 20.1594 7.00193 19.4618 7.80121 19.1402L8.22605 18.9759C8.95716 21.1029 10.9751 22.6315 13.3495 22.6315H13.8909C13.9267 22.6355 13.9631 22.6375 14 22.6375C14.0369 22.6375 14.0733 22.6355 14.1091 22.6315H14.6498C17.025 22.6315 19.0432 21.1029 19.7744 18.9759L20.1913 19.1385C20.9891 19.4596 21.5569 20.1568 21.7063 20.9871L21.911 22.2507C21.9969 22.7807 22.4962 23.1407 23.0262 23.0549C23.5563 22.969 23.9163 22.4697 23.8304 21.9397L23.6245 20.6685L23.6221 20.6543C23.3556 19.1503 22.3287 17.9001 20.9106 17.332L20.0673 17.003V15.1717C21.3019 15.0963 22.4316 15.1152 23.7184 15.6323C24.2166 15.8325 24.7828 15.5909 24.983 15.0926C25.1832 14.5944 24.9416 14.0282 24.4434 13.828C22.7796 13.1595 21.2947 13.147 19.9671 13.2286C19.8933 12.8502 19.7802 12.4859 19.632 12.1402L20.9096 11.6408L20.9135 11.6393C22.3352 11.0766 23.3608 9.81409 23.6174 8.30502M23.6175 8.30417L23.8347 7.03265C23.9251 6.50336 23.5693 6.00103 23.04 5.91064C22.5107 5.82026 22.0084 6.17606 21.918 6.70534L21.7006 7.97857C21.5583 8.81604 20.9898 9.51718 20.1996 9.83058C20.1991 9.83081 20.1985 9.83104 20.1979 9.83126L18.5245 10.4854C18.3397 10.2963 18.1412 10.1207 17.9306 9.96024M16.3492 11.2422C16.4144 11.2946 16.4864 11.3388 16.5637 11.3732C17.4951 11.9893 18.1121 13.0421 18.1227 14.2392C18.1222 14.2582 18.1223 14.2773 18.1229 14.2966V17.214C18.1229 17.3093 18.119 17.4038 18.1115 17.4972C18.1042 17.5405 18.0999 17.5839 18.0986 17.627C17.9068 19.2451 16.6027 20.5222 14.9722 20.6723V10.8135C15.4689 10.8592 15.9353 11.0095 16.3492 11.2422ZM13.0278 10.8134C12.5322 10.859 12.0667 11.0088 11.6535 11.2407C11.5872 11.2943 11.5138 11.3393 11.4349 11.3742C10.5076 11.9885 9.89217 13.0362 9.87779 14.228C9.87882 14.2548 9.87874 14.2819 9.87753 14.3092V17.214C9.87753 17.2864 9.87975 17.3582 9.88411 17.4295C9.90564 17.5182 9.91415 17.6077 9.91067 17.6957C10.1307 19.2814 11.4211 20.5246 13.0278 20.6723V10.8134Z" fill="#1E1E1E"/>
</svg>
