<svg width="24" height="24" viewBox="0 0 34 34" fill="none" xmlns="http://www.w3.org/2000/svg">
<path d="M6.22095 8.34071L6.48342 9.88574C6.7255 11.311 7.6938 12.5037 9.03748 13.0355L11.8568 14.137M10.8147 17.3234C8.89305 17.1792 6.98361 16.9929 4.76001 17.8864M6.22095 26.8296L6.49023 25.286C6.72279 23.8662 7.69383 22.6816 9.04023 22.1431L10.8544 21.4413M23.1571 21.4413L24.9525 22.1417C26.3002 22.6816 27.2699 23.8662 27.5215 25.286L27.7716 26.8296M23.1864 17.3234C25.1081 17.1792 27.0175 16.9929 29.2411 17.8864M27.7784 8.34071L27.5146 9.88574C27.2725 11.311 26.3042 12.5037 24.9605 13.0355L22.1424 14.137M13.4088 12.7308V10.2856C13.4088 8.30135 15.0163 6.69385 17.0006 6.69385C18.9848 6.69385 20.5923 8.30135 20.5923 10.2856V12.7308M17 12.3676V26.3077M17.7891 26.3003H16.2101C13.2303 26.3003 10.8136 23.8836 10.8136 20.9025V17.3285C10.8136 14.3488 13.2303 11.932 16.2101 11.932H17.7891C20.7702 11.932 23.1869 14.3488 23.1869 17.3285V20.9025C23.1869 23.8836 20.7702 26.3003 17.7891 26.3003Z" stroke="#1E1E1E" stroke-width="2.5" stroke-linecap="round" stroke-linejoin="round"/>
</svg>
