<svg width="24" height="24" viewBox="0 0 36 36" fill="none" xmlns="http://www.w3.org/2000/svg">
<path d="M29.3765 8.85598C33.2016 14.3625 33.2141 21.6261 29.3765 27.1434M25.6219 12.4716C27.5889 15.9076 27.5889 20.1038 25.6219 23.5291M3.75278 18.0002C3.7486 19.8447 3.66629 22.3605 4.80741 23.3009C5.8718 24.1781 6.62092 23.952 8.56417 24.0946C10.5088 24.2386 14.6129 29.955 17.7768 28.1468C19.409 26.8634 19.5303 24.1727 19.5303 18.0002C19.5303 11.8277 19.409 9.13703 17.7768 7.85356C14.6129 6.04406 10.5088 11.7618 8.56417 11.9058C6.62092 12.0484 5.8718 11.8223 4.80741 12.6995C3.66629 13.6399 3.7486 16.1557 3.75278 18.0002Z" stroke="#1E1E1E" stroke-width="2.5" stroke-linecap="round" stroke-linejoin="round"/>
</svg>
